<svg xmlns="http://www.w3.org/2000/svg" xmlns:xlink="http://www.w3.org/1999/xlink" width="1920" zoomAndPan="magnify" viewBox="0 0 1440 404.99999" height="540" preserveAspectRatio="xMidYMid meet" version="1.0"><defs><clipPath id="4f5f14c5c0"><path d="M 203 117 L 471 117 L 471 337.46875 L 203 337.46875 Z M 203 117 " clip-rule="nonzero"/></clipPath><clipPath id="c6bcc97d40"><path d="M 203 117 L 471 117 L 471 337.46875 L 203 337.46875 Z M 203 117 " clip-rule="nonzero"/></clipPath></defs><path fill="#ffffff" d="M 569.804688 226.878906 C 569.804688 217.605469 562.253906 212.632812 551.832031 212.632812 C 541.316406 212.632812 534.050781 217.222656 534.050781 224.679688 C 534.050781 235.003906 550.496094 235.195312 554.988281 235.578125 C 574.585938 238.160156 599.347656 243.324219 605.277344 268.277344 C 605.847656 271.429688 606.230469 274.96875 606.230469 277.929688 C 606.230469 306.804688 578.125 323.4375 551.832031 323.4375 C 529.269531 323.4375 498.582031 309.578125 498.582031 274.394531 L 532.808594 274.394531 C 532.808594 288.066406 544.28125 290.648438 552.023438 290.648438 C 563.113281 290.648438 572.003906 287.492188 572.003906 279.558594 C 572.003906 269.613281 556.136719 269.230469 551.066406 268.65625 C 528.695312 266.460938 502.214844 261.488281 499.632812 229.652344 L 499.632812 229.84375 C 498.007812 199.34375 522.960938 181.179688 552.503906 181.179688 C 577.261719 181.179688 603.9375 195.042969 603.9375 226.878906 Z M 569.804688 226.878906 " fill-opacity="1" fill-rule="nonzero"/><path fill="#ffffff" d="M 615.121094 267.222656 C 615.121094 190.835938 729.371094 191.027344 729.371094 267.222656 C 729.371094 343.421875 615.121094 343.039062 615.121094 267.222656 Z M 698.105469 267.222656 C 698.105469 230.796875 646.480469 230.988281 646.480469 267.222656 C 646.386719 303.074219 698.105469 303.265625 698.105469 267.222656 Z M 698.105469 267.222656 " fill-opacity="1" fill-rule="nonzero"/><path fill="#ffffff" d="M 770.097656 188.445312 L 770.097656 321.621094 L 738.453125 321.621094 L 738.453125 188.636719 Z M 770.097656 188.445312 " fill-opacity="1" fill-rule="nonzero"/><path fill="#ffffff" d="M 849.351562 321.71875 L 849.351562 310.820312 C 841.800781 320.476562 830.519531 323.246094 819.046875 323.054688 C 788.546875 322.863281 780.230469 300.113281 780.421875 273.535156 L 780.421875 214.546875 L 811.875 214.546875 L 811.875 273.34375 C 811.875 304.222656 847.726562 300.113281 847.726562 272.769531 L 847.726562 214.546875 L 880.804688 214.546875 L 880.804688 321.621094 L 849.351562 321.621094 Z M 849.351562 321.71875 " fill-opacity="1" fill-rule="nonzero"/><path fill="#ffffff" d="M 940.941406 323.4375 C 916.945312 323.628906 902.507812 312.539062 902.507812 284.625 L 902.507812 241.316406 L 890.558594 241.316406 L 890.558594 214.546875 L 902.601562 214.546875 L 902.601562 196.574219 L 933.675781 187.488281 L 933.675781 214.546875 L 958.054688 214.640625 L 958.054688 241.410156 L 933.675781 241.316406 L 933.675781 284.625 C 933.675781 294.089844 940.558594 297.050781 948.109375 297.050781 C 951.074219 297.050781 955.28125 296.667969 958.054688 296.097656 L 958.054688 321.8125 C 951.839844 322.863281 946.101562 323.4375 940.941406 323.4375 Z M 940.941406 323.4375 " fill-opacity="1" fill-rule="nonzero"/><path fill="#ffffff" d="M 968.28125 214.640625 L 968.28125 321.71875 L 999.929688 321.71875 L 999.929688 214.640625 Z M 968.28125 214.640625 " fill-opacity="1" fill-rule="nonzero"/><path fill="#ffffff" d="M 1009.011719 268.277344 C 1009.011719 191.886719 1123.257812 192.078125 1123.257812 268.277344 C 1123.257812 344.472656 1009.011719 344.089844 1009.011719 268.277344 Z M 1091.996094 268.277344 C 1091.996094 231.851562 1040.367188 232.042969 1040.367188 268.277344 C 1040.367188 304.03125 1091.996094 304.222656 1091.996094 268.277344 Z M 1091.996094 268.277344 " fill-opacity="1" fill-rule="nonzero"/><path fill="#ffffff" d="M 1163.886719 214.640625 L 1163.886719 225.347656 C 1171.441406 215.882812 1184.0625 213.113281 1195.535156 213.113281 C 1226.03125 213.496094 1234.347656 236.058594 1234.15625 262.824219 L 1234.15625 321.8125 L 1202.511719 321.8125 L 1202.511719 263.015625 C 1202.511719 248.582031 1194.386719 242.078125 1185.878906 242.078125 C 1176.605469 242.078125 1165.515625 250.015625 1165.515625 263.6875 L 1165.515625 321.910156 L 1132.433594 321.910156 L 1132.433594 214.832031 L 1163.886719 214.832031 Z M 1163.886719 214.640625 " fill-opacity="1" fill-rule="nonzero"/><path fill="#ffffff" d="M 1288.171875 212.058594 C 1311.117188 212.058594 1331.101562 223.722656 1331.289062 248.675781 L 1301.367188 248.675781 C 1301.175781 240.359375 1292.859375 239.785156 1286.355469 239.785156 C 1281.769531 239.785156 1275.457031 241.410156 1275.457031 247.148438 C 1275.457031 252.691406 1283.777344 252.882812 1288.363281 253.074219 C 1310.734375 253.648438 1333.488281 263.207031 1333.488281 288.542969 C 1333.488281 315.503906 1311.5 324.585938 1287.792969 324.585938 C 1262.265625 324.585938 1242.855469 313.113281 1242.476562 285.769531 L 1273.738281 285.769531 C 1273.929688 292.941406 1281.480469 295.90625 1288.554688 295.90625 C 1296.683594 296.097656 1302.226562 293.132812 1302.226562 289.402344 C 1302.226562 281.660156 1290.371094 282.710938 1285.210938 282.234375 C 1265.039062 280.417969 1244.003906 272.769531 1244.003906 249.15625 C 1244.003906 223.152344 1264.175781 212.058594 1288.171875 212.058594 Z M 1288.171875 212.058594 " fill-opacity="1" fill-rule="nonzero"/><path fill="#ffffff" d="M 983.484375 174.011719 C 992.089844 173.820312 1001.074219 179.171875 1001.074219 190.550781 C 1001.074219 200.96875 992.949219 206.132812 984.726562 206.324219 C 976.121094 206.515625 967.136719 201.257812 967.136719 190.550781 C 967.136719 179.84375 975.261719 174.203125 983.484375 174.011719 Z M 983.484375 174.011719 " fill-opacity="1" fill-rule="nonzero"/><g clip-path="url(#4f5f14c5c0)"><path fill="#ffffff" d="M 410.625 141.503906 C 420.1875 141.503906 429.269531 145.234375 436.054688 152.117188 C 442.84375 159 446.667969 167.988281 446.667969 177.546875 L 446.667969 324.585938 C 446.667969 334.144531 442.941406 343.230469 436.054688 350.015625 C 429.171875 356.898438 420.1875 360.628906 410.625 360.628906 L 263.585938 360.628906 C 254.027344 360.628906 244.945312 356.898438 238.15625 350.015625 C 231.273438 343.132812 227.542969 334.144531 227.542969 324.585938 L 227.542969 177.546875 C 227.542969 167.988281 231.273438 158.90625 238.15625 152.117188 C 245.039062 145.234375 254.027344 141.503906 263.585938 141.503906 L 410.625 141.503906 M 410.625 117.316406 L 263.585938 117.316406 C 230.414062 117.316406 203.355469 144.46875 203.355469 177.546875 L 203.355469 324.585938 C 203.355469 357.761719 230.507812 384.816406 263.585938 384.816406 L 410.625 384.816406 C 443.800781 384.816406 470.855469 357.664062 470.855469 324.585938 L 470.855469 177.546875 C 470.855469 144.46875 443.800781 117.316406 410.625 117.316406 Z M 410.625 117.316406 " fill-opacity="1" fill-rule="nonzero"/></g><path fill="#ffffff" d="M 179.167969 238.636719 L 166.742188 238.636719 C 157.179688 238.636719 148.097656 234.910156 141.308594 228.027344 C 134.425781 221.144531 130.699219 212.15625 130.699219 202.59375 L 130.699219 80.414062 C 130.699219 70.855469 134.425781 61.769531 141.308594 54.984375 C 148.195312 48.101562 157.179688 44.371094 166.742188 44.371094 L 288.921875 44.371094 C 298.484375 44.371094 307.566406 48.101562 314.351562 54.984375 C 321.238281 61.867188 324.964844 70.855469 324.964844 80.414062 L 324.964844 93.226562 L 349.152344 93.226562 L 349.152344 80.414062 C 349.152344 47.238281 322 20.183594 288.921875 20.183594 L 166.742188 20.183594 C 133.566406 20.183594 106.511719 47.335938 106.511719 80.414062 L 106.511719 202.59375 C 106.511719 235.769531 133.660156 262.824219 166.742188 262.824219 L 179.167969 262.824219 Z M 179.167969 238.636719 " fill-opacity="1" fill-rule="nonzero"/><g clip-path="url(#c6bcc97d40)"><path fill="#ffffff" d="M 410.625 141.503906 C 420.1875 141.503906 429.269531 145.234375 436.054688 152.117188 C 442.84375 159 446.667969 167.988281 446.667969 177.546875 L 446.667969 324.585938 C 446.667969 334.144531 442.941406 343.230469 436.054688 350.015625 C 429.171875 356.898438 420.1875 360.628906 410.625 360.628906 L 263.585938 360.628906 C 254.027344 360.628906 244.945312 356.898438 238.15625 350.015625 C 231.273438 343.132812 227.542969 334.144531 227.542969 324.585938 L 227.542969 177.546875 C 227.542969 167.988281 231.273438 158.90625 238.15625 152.117188 C 245.039062 145.234375 254.027344 141.503906 263.585938 141.503906 L 410.625 141.503906 M 410.625 117.316406 L 263.585938 117.316406 C 230.414062 117.316406 203.355469 144.46875 203.355469 177.546875 L 203.355469 324.585938 C 203.355469 357.761719 230.507812 384.816406 263.585938 384.816406 L 410.625 384.816406 C 443.800781 384.816406 470.855469 357.664062 470.855469 324.585938 L 470.855469 177.546875 C 470.855469 144.46875 443.800781 117.316406 410.625 117.316406 Z M 410.625 117.316406 " fill-opacity="1" fill-rule="nonzero"/></g><path fill="#ffffff" d="M 179.167969 238.636719 L 166.742188 238.636719 C 157.179688 238.636719 148.097656 234.910156 141.308594 228.027344 C 134.425781 221.144531 130.699219 212.15625 130.699219 202.59375 L 130.699219 80.414062 C 130.699219 70.855469 134.425781 61.769531 141.308594 54.984375 C 148.195312 48.101562 157.179688 44.371094 166.742188 44.371094 L 288.921875 44.371094 C 298.484375 44.371094 307.566406 48.101562 314.351562 54.984375 C 321.238281 61.867188 324.964844 70.855469 324.964844 80.414062 L 324.964844 93.226562 L 349.152344 93.226562 L 349.152344 80.414062 C 349.152344 47.238281 322 20.183594 288.921875 20.183594 L 166.742188 20.183594 C 133.566406 20.183594 106.511719 47.335938 106.511719 80.414062 L 106.511719 202.59375 C 106.511719 235.769531 133.660156 262.824219 166.742188 262.824219 L 179.167969 262.824219 Z M 179.167969 238.636719 " fill-opacity="1" fill-rule="nonzero"/><path fill="#a8f04a" d="M 353.265625 181.179688 C 375.636719 181.179688 390.644531 200.109375 390.835938 218.5625 C 391.027344 228.503906 386.726562 238.636719 377.261719 245.425781 C 392.269531 253.171875 398.390625 265.503906 398.390625 277.550781 C 398.390625 300.492188 382.710938 323.4375 352.882812 323.4375 L 287.394531 323.4375 L 287.394531 181.179688 Z M 321.808594 232.613281 L 348.003906 232.613281 C 354.125 232.613281 356.992188 227.546875 356.992188 222.480469 C 356.992188 217.605469 353.933594 212.730469 348.484375 212.730469 L 321.808594 212.730469 Z M 321.808594 290.457031 L 352.882812 290.457031 C 360.242188 290.457031 363.875 284.144531 363.875 277.644531 C 363.875 271.144531 360.242188 264.640625 352.882812 264.640625 L 321.808594 264.640625 Z M 321.808594 290.457031 " fill-opacity="1" fill-rule="nonzero"/><path fill="#ffffff" d="M 410.625 141.503906 C 420.1875 141.503906 429.269531 145.234375 436.054688 152.117188 C 442.84375 159 446.667969 167.988281 446.667969 177.546875 L 446.667969 324.585938 C 446.667969 334.144531 442.941406 343.230469 436.054688 350.015625 C 429.171875 356.898438 420.1875 360.628906 410.625 360.628906 L 263.585938 360.628906 C 254.027344 360.628906 244.945312 356.898438 238.15625 350.015625 C 231.273438 343.132812 227.542969 334.144531 227.542969 324.585938 L 227.542969 177.546875 C 227.542969 167.988281 231.273438 158.90625 238.15625 152.117188 C 245.039062 145.234375 254.027344 141.503906 263.585938 141.503906 L 410.625 141.503906 M 410.625 117.316406 L 263.585938 117.316406 C 230.414062 117.316406 203.355469 144.46875 203.355469 177.546875 L 203.355469 324.585938 C 203.355469 357.761719 230.507812 384.816406 263.585938 384.816406 L 410.625 384.816406 C 443.800781 384.816406 470.855469 357.664062 470.855469 324.585938 L 470.855469 177.546875 C 470.855469 144.46875 443.800781 117.316406 410.625 117.316406 Z M 410.625 117.316406 " fill-opacity="1" fill-rule="nonzero"/><path fill="#ffffff" d="M 179.167969 238.636719 L 166.742188 238.636719 C 157.179688 238.636719 148.097656 234.910156 141.308594 228.027344 C 134.425781 221.144531 130.699219 212.15625 130.699219 202.59375 L 130.699219 80.414062 C 130.699219 70.855469 134.425781 61.769531 141.308594 54.984375 C 148.195312 48.101562 157.179688 44.371094 166.742188 44.371094 L 288.921875 44.371094 C 298.484375 44.371094 307.566406 48.101562 314.351562 54.984375 C 321.238281 61.867188 324.964844 70.855469 324.964844 80.414062 L 324.964844 93.226562 L 349.152344 93.226562 L 349.152344 80.414062 C 349.152344 47.238281 322 20.183594 288.921875 20.183594 L 166.742188 20.183594 C 133.566406 20.183594 106.511719 47.335938 106.511719 80.414062 L 106.511719 202.59375 C 106.511719 235.769531 133.660156 262.824219 166.742188 262.824219 L 179.167969 262.824219 Z M 179.167969 238.636719 " fill-opacity="1" fill-rule="nonzero"/><path fill="#ffffff" d="M 410.625 141.503906 C 420.1875 141.503906 429.269531 145.234375 436.054688 152.117188 C 442.84375 159 446.667969 167.988281 446.667969 177.546875 L 446.667969 324.585938 C 446.667969 334.144531 442.941406 343.230469 436.054688 350.015625 C 429.171875 356.898438 420.1875 360.628906 410.625 360.628906 L 263.585938 360.628906 C 254.027344 360.628906 244.945312 356.898438 238.15625 350.015625 C 231.273438 343.132812 227.542969 334.144531 227.542969 324.585938 L 227.542969 177.546875 C 227.542969 167.988281 231.273438 158.90625 238.15625 152.117188 C 245.039062 145.234375 254.027344 141.503906 263.585938 141.503906 L 410.625 141.503906 M 410.625 117.316406 L 263.585938 117.316406 C 230.414062 117.316406 203.355469 144.46875 203.355469 177.546875 L 203.355469 324.585938 C 203.355469 357.761719 230.507812 384.816406 263.585938 384.816406 L 410.625 384.816406 C 443.800781 384.816406 470.855469 357.664062 470.855469 324.585938 L 470.855469 177.546875 C 470.855469 144.46875 443.800781 117.316406 410.625 117.316406 Z M 410.625 117.316406 " fill-opacity="1" fill-rule="nonzero"/><path fill="#ffffff" d="M 179.167969 238.636719 L 166.742188 238.636719 C 157.179688 238.636719 148.097656 234.910156 141.308594 228.027344 C 134.425781 221.144531 130.699219 212.15625 130.699219 202.59375 L 130.699219 80.414062 C 130.699219 70.855469 134.425781 61.769531 141.308594 54.984375 C 148.195312 48.101562 157.179688 44.371094 166.742188 44.371094 L 288.921875 44.371094 C 298.484375 44.371094 307.566406 48.101562 314.351562 54.984375 C 321.238281 61.867188 324.964844 70.855469 324.964844 80.414062 L 324.964844 93.226562 L 349.152344 93.226562 L 349.152344 80.414062 C 349.152344 47.238281 322 20.183594 288.921875 20.183594 L 166.742188 20.183594 C 133.566406 20.183594 106.511719 47.335938 106.511719 80.414062 L 106.511719 202.59375 C 106.511719 235.769531 133.660156 262.824219 166.742188 262.824219 L 179.167969 262.824219 Z M 179.167969 238.636719 " fill-opacity="1" fill-rule="nonzero"/><path fill="#a8f04a" d="M 353.265625 181.179688 C 375.636719 181.179688 390.644531 200.109375 390.835938 218.5625 C 391.027344 228.503906 386.726562 238.636719 377.261719 245.425781 C 392.269531 253.171875 398.390625 265.503906 398.390625 277.550781 C 398.390625 300.492188 382.710938 323.4375 352.882812 323.4375 L 287.394531 323.4375 L 287.394531 181.179688 Z M 321.808594 232.613281 L 348.003906 232.613281 C 354.125 232.613281 356.992188 227.546875 356.992188 222.480469 C 356.992188 217.605469 353.933594 212.730469 348.484375 212.730469 L 321.808594 212.730469 Z M 321.808594 290.457031 L 352.882812 290.457031 C 360.242188 290.457031 363.875 284.144531 363.875 277.644531 C 363.875 271.144531 360.242188 264.640625 352.882812 264.640625 L 321.808594 264.640625 Z M 321.808594 290.457031 " fill-opacity="1" fill-rule="nonzero"/></svg>